<?xml version="1.0" standalone="no"?>
<!DOCTYPE svg PUBLIC "-//W3C//DTD SVG 20010904//EN"
 "http://www.w3.org/TR/2001/REC-SVG-20010904/DTD/svg10.dtd">
<svg version="1.0" xmlns="http://www.w3.org/2000/svg"
 width="452.000000pt" height="334.000000pt" viewBox="0 0 452.000000 334.000000"
 preserveAspectRatio="xMidYMid meet">
<metadata>
Created by potrace 1.16, written by Peter Selinger 2001-2019
</metadata>
<g transform="translate(0.000000,334.000000) scale(0.100000,-0.100000)"
fill="#000000" stroke="none">
<path d="M440 3207 c0 -6 143 -195 252 -334 6 -7 -39 -229 -127 -630 -75 -340
-165 -751 -200 -913 -35 -162 -80 -367 -99 -454 -20 -88 -36 -165 -36 -173 0
-10 59 -13 314 -13 291 0 315 1 320 18 15 52 176 801 176 819 0 18 -51 217
-74 291 -5 14 15 33 84 80 49 35 90 64 90 65 0 1 38 173 83 382 l83 380 247 3
c212 2 247 0 247 -12 0 -22 -138 -644 -145 -656 -4 -6 -124 -70 -268 -141
-144 -72 -264 -133 -266 -135 -2 -2 12 -66 32 -141 201 -772 270 -1029 276
-1035 3 -4 23 72 44 170 21 97 131 599 243 1114 l205 938 -142 187 c-78 104
-144 190 -147 193 -7 9 -1192 6 -1192 -3z"/>
<path d="M1780 3180 c5 -10 16 -24 22 -32 7 -7 33 -40 58 -73 25 -33 74 -96
107 -141 l62 -80 -59 -261 c-32 -143 -72 -325 -88 -404 -17 -79 -42 -198 -56
-264 -15 -66 -33 -151 -42 -190 -8 -38 -19 -90 -25 -115 -98 -443 -199 -908
-199 -918 0 -10 65 -12 307 -10 l307 3 28 125 c107 491 199 908 204 923 8 25
19 21 33 -10 13 -28 20 -66 101 -548 23 -137 44 -252 46 -254 7 -8 64 42 58
51 -4 7 -2 8 4 4 12 -7 347 240 413 304 33 32 281 397 295 435 3 8 13 15 21
15 12 0 13 -7 8 -27 -4 -16 -17 -77 -30 -138 -69 -323 -166 -753 -174 -772 -6
-11 -23 -24 -39 -27 -16 -4 -69 -36 -118 -72 -102 -74 -124 -83 -159 -60 -30
20 -29 22 -65 -122 -22 -85 -23 -94 -8 -108 15 -15 17 -14 32 13 39 77 150
168 267 220 l84 37 253 4 c140 2 252 0 252 -5 0 -11 -93 -103 -105 -104 -6 0
-23 -16 -38 -34 l-28 -34 78 -51 c82 -52 137 -70 156 -51 8 8 0 20 -31 46 -79
68 -66 103 78 200 189 126 192 133 99 214 l-61 54 7 45 c9 58 22 92 37 96 7 2
37 11 66 20 l53 17 42 -34 c23 -19 65 -46 94 -61 l52 -26 30 25 c16 14 51 57
78 96 85 125 109 170 83 154 -6 -4 -7 6 -4 25 6 26 4 30 -15 30 -13 0 -25 -9
-31 -24 -11 -29 -26 -40 -35 -26 -12 19 -26 11 -15 -9 25 -48 -4 -109 -75
-159 l-36 -26 -37 37 -37 37 33 12 c17 7 32 17 32 24 0 16 34 44 53 44 12 0
17 9 17 29 0 33 -46 86 -89 103 -35 13 -87 2 -104 -22 -13 -19 -15 -18 -56 21
l-43 40 66 302 c66 298 75 338 95 427 6 25 20 92 32 150 11 58 61 286 110 508
49 222 89 407 89 412 0 6 -133 10 -317 10 l-318 0 -220 -317 c-121 -174 -284
-409 -363 -522 -78 -113 -149 -207 -157 -209 -11 -3 -15 6 -15 31 0 19 -4 47
-9 63 -10 33 -12 40 -91 439 -34 165 -70 349 -82 408 l-22 108 -478 -2 c-458
-1 -477 -2 -468 -19z"/>
<path d="M1436 563 c26 -106 42 -148 53 -145 20 4 335 153 346 163 5 5 -75 9
-198 9 l-207 0 6 -27z"/>
<path d="M220 230 l0 -130 25 0 c23 0 25 3 25 50 0 41 3 50 18 50 10 0 40 -22
67 -50 39 -40 56 -50 82 -50 29 0 33 3 33 25 0 20 -5 25 -23 25 -13 0 -34 11
-46 24 l-22 23 39 7 c45 7 52 18 52 81 0 65 -20 75 -147 75 l-103 0 0 -130z"/>
<path d="M529 341 c-22 -18 -24 -26 -24 -116 0 -124 1 -125 147 -125 l108 0 0
25 0 25 -100 0 -100 0 0 25 0 25 100 0 100 0 0 25 0 25 -100 0 -100 0 0 30 0
30 100 0 100 0 0 25 0 25 -104 0 c-87 0 -108 -3 -127 -19z"/>
<path d="M813 345 c-21 -15 -23 -24 -23 -115 0 -131 -1 -130 146 -130 114 0
115 0 112 23 -3 21 -8 22 -106 25 l-103 3 3 77 3 77 103 3 c100 3 103 3 100
25 -3 21 -8 22 -108 25 -83 2 -110 -1 -127 -13z"/>
<path d="M1077 353 c-4 -3 -7 -62 -7 -130 l0 -123 25 0 c23 0 25 3 25 50 0 41
3 50 18 50 10 0 40 -22 67 -50 42 -43 55 -50 87 -50 34 0 38 3 38 25 0 21 -5
25 -28 25 -26 0 -62 25 -62 43 0 4 11 7 25 7 38 0 65 33 65 80 0 68 -21 80
-143 80 -57 0 -107 -3 -110 -7z"/>
<path d="M1357 354 c-4 -4 -7 -53 -7 -108 0 -143 3 -146 130 -146 131 0 130
-1 130 146 0 114 0 115 -22 112 -22 -3 -23 -8 -26 -105 l-3 -103 -74 0 -74 0
-3 103 c-3 94 -5 102 -23 105 -12 2 -24 0 -28 -4z"/>
<path d="M1640 336 c0 -23 4 -25 48 -28 l47 -3 3 -77 3 -78 -51 0 c-47 0 -50
-2 -50 -25 l0 -26 128 3 c119 3 127 4 127 23 0 17 -8 20 -53 23 l-53 3 3 77 3
77 53 3 c48 3 53 5 50 25 -3 21 -8 22 -130 25 l-128 3 0 -25z"/>
<path d="M1920 336 c0 -23 4 -25 48 -28 l47 -3 3 -102 c3 -102 3 -103 27 -103
24 0 24 1 27 103 l3 102 53 3 c48 3 53 5 50 25 -3 21 -8 22 -130 25 l-128 3 0
-25z"/>
<path d="M2220 331 c-5 -11 -10 -65 -10 -120 0 -83 3 -101 15 -101 12 0 15 16
16 78 2 122 0 117 37 120 l32 3 0 -103 c0 -97 1 -104 20 -104 19 0 20 7 20
103 l0 103 35 0 35 0 0 -105 c0 -89 2 -104 15 -99 12 5 15 27 15 113 0 70 -4
111 -12 119 -8 8 -47 12 -110 12 -86 0 -98 -2 -108 -19z"/>
<path d="M2512 337 c-6 -7 -12 -61 -14 -120 -3 -96 -1 -107 15 -107 14 0 17 9
17 50 l0 50 85 0 85 0 0 -54 c0 -47 2 -53 18 -50 15 4 17 17 14 112 -2 59 -8
112 -14 119 -7 9 -40 13 -103 13 -63 0 -96 -4 -103 -13z"/>
<path d="M2780 330 c0 -17 7 -20 50 -20 l50 0 0 -105 c0 -89 2 -104 15 -99 12
5 15 26 15 99 0 62 4 96 12 101 6 4 31 7 55 5 37 -2 43 1 43 19 0 19 -6 20
-120 20 -113 0 -120 -1 -120 -20z"/>
<path d="M3070 331 c-14 -28 -13 -194 2 -209 8 -8 49 -12 120 -12 88 0 108 3
108 15 0 11 -20 15 -102 17 l-103 3 -3 33 -3 32 105 0 c99 0 106 1 106 20 0
19 -7 20 -105 20 l-105 0 0 30 0 30 105 0 c98 0 105 1 105 20 0 19 -7 20 -110
20 -98 0 -110 -2 -120 -19z"/>
</g>
</svg>
